<svg xmlns="http://www.w3.org/2000/svg" width="1024" height="1024" preserveAspectRatio="none" style="display:block" viewBox="0 0 2048 2048"><path fill="#0B4959" d="M522.133 0H1532.66c16.62 3.662 39.1 2.504 56.44 3.99 19.65 1.686 39.17 3.077 58.72 6.206 129.12 17.556 243.65 83.835 316.55 193.016 46.3 69.355 68.55 142.025 77.74 224.849a767 767 0 0 1 3.36 38.287c.38 7.224 1.01 29.746 2.53 35.826V1579.58c-2.31 11.31-2.6 25.56-3.77 37.25-2 18.46-5.03 36.79-9.09 54.91-27.39 120.38-100.38 215.68-201.14 284.82a523.76 523.76 0 0 1-203.9 82.84 460 460 0 0 1-38.24 5.14c-7.72.72-24.62 1.8-31.44 3.46H491.392c-9.815-2.25-20.986-1.96-31.088-2.97a636 636 0 0 1-38.162-5 520.7 520.7 0 0 1-206.849-82.8c-99.548-67.37-176.407-167.46-202.494-286.05a531 531 0 0 1-9.551-62.7c-1.046-11.77-.816-25.29-3.248-36.74V522.175c1.496-5.841 1.937-27.514 2.164-34.044a863 863 0 0 1 2.539-44.32c7.096-85.559 29.156-166.183 77.392-238.062C156.98 94.158 269.937 27.812 402.479 9.892a773 773 0 0 1 65.523-6.393c14.933-.75 39.972-.403 54.131-3.499"/><path fill="#92F972" d="M1233.09 905.545a730 730 0 0 1 32.14-3.83c7.12 24.645 13.66 35.329 31.11 53.986-1.81 9.466-3.48 19.042-3.62 28.705.35 7.784.89 13.47 1.89 21.214 3.39 11.26 6.65 21.41 11.7 32.15-25.31 13.06-46.84 26.05-69.46 43.49-51.07 39.36-103.17 95.94-174.19 73.1-7.46-2.46-14.71-5.51-21.69-9.11-6.63-3.49-12.12-6.21-18.22-10.57-13.68-6.26-34.191-24.95-45.171-35.84 57.981-11.98 89.731-42.66 117.461-92.61 30.89-55.639 74.63-88.359 138.05-100.685"/><path fill="#18F9F5" d="M1294.61 1005.62c3.39 11.26 6.65 21.41 11.7 32.15-25.31 13.06-46.84 26.05-69.46 43.49-51.07 39.36-103.17 95.94-174.19 73.1-7.46-2.46-14.71-5.51-21.69-9.11-6.63-3.49-12.12-6.21-18.22-10.57 5.77-1.21 11.86-.83 17.81-.78 57.37.17 106.74-18.85 151.05-54.67 27.28-22.05 70.65-61.64 103-73.61"/><path fill="#18F9F5" d="M1233.09 905.545a730 730 0 0 1 32.14-3.83c7.12 24.645 13.66 35.329 31.11 53.986-1.81 9.466-3.48 19.042-3.62 28.705-30.98-20.962-46.53-43.527-59.63-78.861"/><path fill="#18F9F5" d="M916.481 965.847c75.925-89.015 197.169-161.515 308.229-196.101-5.98 13.065-9.64 25.301-13.71 38.968-5.6 28.363-7.23 49.627-2.54 78.751-52.85 13.845-95.67 45.605-124.35 91.632-26.75 42.923-37.76 71.953-89.088 90.993-12.346 3.91-21.924 6.02-34.454 8.32-28.719-43.27-34.144-61.48-44.087-112.563"/><path fill="#7DFAF5" d="M916.481 965.847c75.925-89.015 197.169-161.515 308.229-196.101-5.98 13.065-9.64 25.301-13.71 38.968-19.37 5.066-43.94 15.951-61.97 24.735a705.5 705.5 0 0 0-149.08 96.094c-12.686 10.475-34.922 30.577-43.347 44.325-14.58 23.794 21.47 81.022 38.419 96.222-12.346 3.91-21.924 6.02-34.454 8.32-28.719-43.27-34.144-61.48-44.087-112.563"/><path fill="#18F9F5" d="M462.684 701.219c20.011 1.507 38.027 4.653 58.69 5.593a597.8 597.8 0 0 0 217.715-31.466c51.686-17.642 103.315-42.162 151.301-68.598 168.82-93.002 345.62-227.613 549.43-205.452 111.18 12.089 191.29 103.842 181.51 216.214-7.38 84.711-58.81 155.073-119.93 210.638-7.04-8.349-16.3-16.336-22.54-24.18 55.91-47.858 103.87-115.767 109.86-190.781 8.47-106.003-70.37-176.871-172.21-182.261-53.24-2.818-103.24 4.646-154.39 20.248-233.94 69.413-420.631 264.812-676.989 264.384-35.963-.06-87.837-3.203-122.447-14.339"/><path fill="#18F9F5" d="M450.66 809.61c30.132 9.995 89.509 14.133 121.223 14.439 196.77 2.933 350.039-124.814 506.637-225.309 102.27-65.639 259.86-140.224 375.08-62.091a150.85 150.85 0 0 1 64.33 98.262c11.33 61.751-12.14 112.804-46.27 162.073-5.5-4.831-19.56-13.478-26.75-19.05 28.85-42.457 51.33-85.52 41.2-139.103a118.1 118.1 0 0 0-49.71-74.943c-111.69-75.72-281.94 16.637-378.77 79.784C866.71 768.18 685.181 888.498 447.197 811.508z"/><path fill="#18F9F5" d="M786.942 1055.5c32.933-26.63 71.413-55.801 108.559-76.366 1.88 12.33 4.524 22.996 7.828 34.906 11.211 45.52 35.751 79.75 68.3 112.24 31.271 26.99 42.991 32.76 79.271 50.16-38.33 19.14-59.94 26.09-100.934 39.11-26.025-12.47-52.68-27.05-74.97-45.48-30.581-25.24-50.371-51.73-71.69-84.52-5.7-9.88-11.156-19.9-16.364-30.05"/><path fill="#92F972" d="M971.629 1126.28c31.271 26.99 42.991 32.76 79.271 50.16-38.33 19.14-59.94 26.09-100.934 39.11-26.025-12.47-52.68-27.05-74.97-45.48 27.625-15.6 66.993-32.01 96.633-43.79"/><path fill="#7DFAF5" d="M786.942 1055.5c32.933-26.63 71.413-55.801 108.559-76.366 1.88 12.33 4.524 22.996 7.828 34.906-16.613 8.22-87.421 58.48-100.023 71.51-5.7-9.88-11.156-19.9-16.364-30.05"/><path fill="#18F9F5" d="M680.087 1161.09c28.474-31.4 56.56-61.42 88.151-89.8 5.489 10.45 11.625 20.52 17.65 30.66 22.832 33.9 36.693 52.54 67.667 80.59 21.837 17.48 39.595 31.24 65.225 43.84-31.57 9.9-72.323 29.09-101.684 44.57-17.236-8.95-36.74-19.14-52.22-30.91-24.898-16.91-40.536-31.48-61.027-52.8-8.214-8.39-15.967-17.35-23.762-26.15"/><path fill="#92F972" d="M853.555 1182.54c21.837 17.48 39.595 31.24 65.225 43.84-31.57 9.9-72.323 29.09-101.684 44.57-17.236-8.95-36.74-19.14-52.22-30.91a954 954 0 0 1 88.679-57.5"/><path fill="#7DFAF5" d="M680.087 1161.09c28.474-31.4 56.56-61.42 88.151-89.8 5.489 10.45 11.625 20.52 17.65 30.66-12.218 7.72-78.015 75.26-82.039 85.29-8.214-8.39-15.967-17.35-23.762-26.15"/><path fill="#18F9F5" d="M520.837 1446.58c12.587 5.89 19.35 9.21 32.742 12.16 18.279 1.83 27.012 1.48 44.84-4.07 3.438 55.87-10.412 104.91-47.746 147.61-17.265 19.75-40.606 39.11-66.598 45.36-14.326 2.4-18.616 3.01-26.925-9.69 1.058-25.2 51.997-161.82 63.687-191.37"/><path fill="#7DFAF5" d="M520.837 1446.58c12.587 5.89 19.35 9.21 32.742 12.16-12.683 28.14-22.899 59.73-34.084 88.59-8.227 21.22-16.411 42.5-23.848 64.01-3.757 10.87-9.384 25.25-11.572 36.3-14.326 2.4-18.616 3.01-26.925-9.69 1.058-25.2 51.997-161.82 63.687-191.37"/><path fill="#0FC3F5" d="M1357.35 808.834c39.21-5.005 75.11 22.582 80.37 61.76 5.26 39.179-22.1 75.255-61.24 80.765-39.5 5.56-75.98-22.1-81.29-61.638-5.3-39.537 22.59-75.836 62.16-80.887"/><path fill="#92F972" d="M1374.07 820.434a44.22 44.22 0 0 1 41.31 16.727 44.25 44.25 0 0 1 5.76 44.195 44.22 44.22 0 0 1-35.65 26.756c-24.02 2.791-45.82-14.229-48.94-38.205-3.13-23.976 13.58-46.015 37.52-49.473"/><path fill="#7DFAF5" d="M1253.98 761.977c48.08-11.679 107.63-17.653 154.93-1.191 13.47 4.687 23.68 10.336 36 17.148 7.19 5.572 21.25 14.219 26.75 19.05l7.2 6.984c6.24 7.844 15.5 15.831 22.54 24.18 30.53 46.331 45.78 81.467 47.59 138.125-8.03-.499-17.19-1.286-25.14-1.266-.01-8.874-.41-15.558-1.15-24.429-10.04-47.5-24.45-82.025-59.87-116.655-43.25-42.292-86.32-60.104-143.85-36.21-36.62 23.317-51.64 47.136-55.45 90.27-11.23.94-21.04 1.768-32.21 3.496-4.74-31.383-2.52-51.74 6.88-82.236 4.3-13.225 9.92-24.706 15.78-37.266"/><path fill="#18F9F5" d="M1238.2 799.243c5.73-.311 14.7-2.884 20.51-4.215 14.33-3.288 46.74-10.009 60.27-7.315-36.62 23.317-51.64 47.136-55.45 90.27-11.23.94-21.04 1.768-32.21 3.496-4.74-31.383-2.52-51.74 6.88-82.236"/><path fill="#18F9F5" d="M599.614 1274.65c21.764-34.81 40.611-62.51 65.948-94.88a636 636 0 0 0 22.846 25.45c19.765 20.1 34.126 32.78 56.499 50.03a1950 1950 0 0 0 46.104 29.59c-32.53 18.95-56.033 35.16-86.498 56.76-13.046-6.41-25.31-13.61-37.904-20.85-11.336-6.45-28.234-17.93-38.922-25.6-9.303-6.34-19.518-13.29-28.073-20.5"/><path fill="#92F972" d="M744.907 1255.25a1950 1950 0 0 0 46.104 29.59c-32.53 18.95-56.033 35.16-86.498 56.76-13.046-6.41-25.31-13.61-37.904-20.85 23.212-21.44 53.357-46.04 78.298-65.5"/><path fill="#7DFAF5" d="M599.614 1274.65c21.764-34.81 40.611-62.51 65.948-94.88a636 636 0 0 0 22.846 25.45c-8.82 7.9-56.011 78.21-60.721 89.93-9.303-6.34-19.518-13.29-28.073-20.5"/><path fill="#7DFAF5" d="M588.105 1295.55c8.378 6.57 18.644 13.71 27.371 20.05a1076 1076 0 0 0 34.668 23.38c10.528 6.11 23.703 12.99 33.691 19.15a1660 1660 0 0 0-37.127 33.32c-22.027 20.07-47.821 47.04-80.489 43.93h-4.265c-12.677-.61-22.135-5.78-33.329-11.2 19.509-47.28 34.432-83.65 59.48-128.63"/><path fill="#92F972" d="M650.144 1338.98c10.528 6.11 23.703 12.99 33.691 19.15a1660 1660 0 0 0-37.127 33.32c-22.027 20.07-47.821 47.04-80.489 43.93 6.734-6.86 19.215-24.77 26.081-33.32 19.434-24.21 35.648-41.74 57.844-63.08"/><path fill="#18F9F5" d="M615.476 1315.6a1076 1076 0 0 0 34.668 23.38c-22.196 21.34-38.41 38.87-57.844 63.08-6.866 8.55-19.347 26.46-26.081 33.32h-4.265c3.953-18.45 42.659-104.86 53.522-119.78"/><path fill="#18F9F5" d="M1522.7 940.578c.74 8.871 1.14 15.555 1.15 24.429-73.61 3.323-125.94 49.393-194.19 64.813-12.16-21.79-13.56-35.067-12.51-59.338 52.71 24.909 77.01 8.794 127.36-12.119 25.5-10.594 50.69-16.906 78.19-17.785"/><path fill="#18F9F5" d="M1247.46 1102.8c32.53 37.13 58.38 55.55 102.48 77.1 14.65 60.27 3.69 120.64-22.87 176.15-1.71 3.58-4.95 10.11-7.41 13.11-1.24-3.72-.58-3.2.67-7.79l-1.45-.63c17.48-57.62 26.17-106.1 13.68-166.8-38.61-18.67-76.99-41.94-103.14-77.27 5.9-4.76 11.92-9.39 18.04-13.87"/><path fill="#18F9F5" d="M1277.93 1080.78c.95-.03 35.47 17.99 41.36 20.49 28.14 11.94 56.33 18.13 86.26 23.12 25.57 36.58 36.72 96.64 33.52 140.46-1.25 17.08-4.07 33.2-7.37 49.94-.25-1.33-.44-5.94-.54-7.54 3.02-55.2-10.01-118.97-39.68-165.76-51.19-5.38-89.72-19.17-133.19-46.7 6.08-4.72 13.27-9.54 19.64-14.01"/><path fill="#18F9F5" d="M1216.73 1126.84c3.05 2.96 14.17 24.03 17.74 29.18 16.48 23.77 32.25 37.18 54.27 54.84-2.56 72.57-32.53 129.05-84.53 178.45l-1.08.55-.79-.77c5.52-9.61 16.1-23.07 22.76-34.09 26.64-44.06 39.4-83.63 43.2-134.66-32.04-24.12-49.35-44.19-70.08-78.42 6.23-4.96 12.4-9.98 18.51-15.08"/><path fill="#18F9F5" d="M1319.59 1057.06c41.17 9.63 68.31 8.32 107.59-6.41 1.23.87 2.46 1.74 3.68 2.63 29.1 21.3 50.33 51.07 55.82 87.19 2.24 9.97 3.32 26.67 3.49 37.07-1.5-4.74-3.25-9.58-3.98-14.46-12.54-40.68-25.95-66.04-62.27-90.85-47.46 17.51-84.67 14.49-132.11.47 8.97-5.62 18.47-10.59 27.78-15.64"/><path fill="#7DFAF5" d="M1486.19 1163.08c4.31-6.02-1.84-12.06.49-22.61 2.24 9.97 3.32 26.67 3.49 37.07-1.5-4.74-3.25-9.58-3.98-14.46"/><path fill="#18F9F5" d="M1183.45 1152.88c3.36 1.41 6.45 13.24 8.3 17.71 9.38 22.65 23.08 39.05 38.21 57.73-10.59 48.59-53.85 86.62-103.6 89.1-6.98.35-13.62.49-20.61.51l-2.46-.52c2.12-1.83 16.83-4.77 20.9-5.98 44.63-13.22 67.56-36.5 84.35-78.89-18.53-20.3-33.63-42.67-43.99-68.22 6.74-3.59 12.46-7.31 18.9-11.44"/><path fill="#92F972" d="M1018.7 1217.04c8.89 6.57 11.45 45.87 9.73 57.48-4.53 30.56-19.73 59.5-37.656 84.36-2.625 3.64-7.091 10.19-10.399 12.81l-1.702-.94c19.176-53.03 45.467-88.97 14.867-143.91z"/><path fill="#92F972" d="M923.028 1250.05c1.021.11 2.324.75 2.818 1.71 22.353 43.25 4.278 90.71-21.516 127.88-4.236 6.11-10.743 15.89-16.929 19.79 17.885-55.93 44.814-82.71 11.618-140.45 7.756-3.17 16.104-6.05 24.009-8.93"/><path fill="#92F972" d="M831.43 1289.97c1.38.39 2.259 1.46 2.913 2.85 10.9 23.28 10.705 45.05 2.555 68.77-5.148 14.98-24.087 51.67-37.408 58 16.329-48.64 36.427-67.55 9.543-117.54 6.517-4.06 15.455-8.44 22.397-12.08"/><path fill="#92F972" d="M739.55 1345.83c3.754 3.4 4.599 8.5 6.133 13.15 10.801 32.76-10.73 69.72-33.364 92.28l-.76-.72c-.988-3.63 8.405-24.43 10.26-29.26 10.121-26.34 10.124-36.97-1.135-62.28z"/><path fill="#7DFAF5" d="m1318.88 1360.74 1.45.63c-1.25 4.59-1.91 4.07-.67 7.79-1.77 4.92-5.08 9.64-8.56 13.51z"/><path fill="#0FC3F5" d="M426.541 804.225c7.084.947 16.947 3.637 24.119 5.385l-3.463 1.898c-7.827-2.299-13.057-4.233-20.656-7.283"/></svg>